<?xml version="1.0" encoding="utf-8"?>
<!-- Generator: Adobe Illustrator 26.1.0, SVG Export Plug-In . SVG Version: 6.00 Build 0)  -->
<svg version="1.1" id="Layer_1" xmlns="http://www.w3.org/2000/svg" xmlns:xlink="http://www.w3.org/1999/xlink" x="0px" y="0px"
	 viewBox="0 0 1600 200" style="enable-background:new 0 0 1600 200;" xml:space="preserve">
<style type="text/css">
	.st0{clip-path:url(#SVGID_00000084507473322519272480000009538688873397248140_);}
	.st1{fill:#8C1B1B;}
	.st2{fill:#D72323;}
	.st3{fill:#F5EDED;}
</style>
<g>
	<defs>
		<path id="SVGID_1_" d="M-737.4-1081.9h121.2v44.6h-71.3v30.7h66.8v44.3h-66.8v57.8h-50V-1081.9z M-554-978.1
			c0,4.4,0.6,8.4,1.8,11.9s2.8,6.6,4.8,9.1c2,2.5,4.4,4.5,7.1,5.8c2.7,1.4,5.4,2,8.3,2c2.9,0,5.5-0.7,8-2c2.5-1.3,4.6-3.3,6.5-5.8
			c1.8-2.5,3.3-5.5,4.4-9.1c1.1-3.6,1.6-7.6,1.6-12v-103.7h49.9v103.7c0,11.7-1.7,22.4-5,31.9c-3.3,9.5-8.1,17.7-14.2,24.5
			c-6.1,6.8-13.6,12-22.2,15.7c-8.7,3.7-18.4,5.5-29.1,5.5c-10.8,0-20.5-1.8-29.3-5.5c-8.8-3.7-16.3-8.9-22.6-15.7
			c-6.3-6.8-11.1-15-14.5-24.5c-3.4-9.5-5.1-20.2-5.1-31.9v-103.7h49.9V-978.1z M-442.4-1081.9h49.9v128.6h62.8v48.8h-112.6V-1081.9
			z M-316.8-1081.9h49.9v128.6h62.8v48.8h-112.6V-1081.9z M-79.7-1020.4c-3.8-2.6-8-5.2-12.7-7.7c-4.7-2.5-9.3-4.7-14-6.7
			c-4.7-2-9.2-3.6-13.6-4.8c-4.4-1.2-8.2-1.8-11.5-1.8c-2.8,0-5,0.6-6.7,1.8c-1.7,1.2-2.5,3.2-2.5,6c0,3,1.1,5.4,3.3,7.3
			c2.2,1.9,5.2,3.6,8.8,5.1c3.7,1.5,7.8,2.9,12.5,4.2c4.7,1.4,9.5,3,14.3,4.9c4.8,1.9,9.6,4.2,14.3,6.8c4.7,2.7,8.9,6,12.5,10.1
			c3.7,4.1,6.6,9.1,8.8,14.9c2.2,5.8,3.3,12.8,3.3,21c0,10-1.7,18.6-5.1,25.8c-3.4,7.3-8,13.3-13.8,18.1
			c-5.8,4.8-12.6,8.3-20.2,10.6c-7.7,2.3-15.8,3.4-24.2,3.4c-6.5,0-13.2-0.7-20-2c-6.8-1.3-13.5-3.2-20-5.6
			c-6.5-2.4-12.8-5.5-18.8-9.1c-6-3.6-11.6-7.7-16.6-12.2l18.5-44.2c3.9,3.9,8.3,7.5,13.4,11c5,3.4,10.2,6.4,15.4,8.9
			c5.2,2.5,10.4,4.5,15.4,6c5,1.4,9.4,2.2,13.2,2.2c3.7,0,6.6-0.8,8.8-2.3c2.2-1.5,3.3-4,3.3-7.5c0-3-1.1-5.5-3.3-7.4
			c-2.2-1.9-5.2-3.6-8.8-5.1c-3.7-1.5-7.8-2.9-12.5-4.1c-4.7-1.3-9.5-2.8-14.3-4.6c-4.8-1.8-9.6-3.9-14.3-6.5
			c-4.7-2.5-8.9-5.8-12.5-9.7c-3.7-3.9-6.6-8.7-8.8-14.3c-2.2-5.6-3.3-12.4-3.3-20.3c0-9,1.5-17,4.6-24.3c3-7.2,7.4-13.4,13-18.4
			c5.6-5.1,12.4-9,20.4-11.7c8-2.7,16.8-4.1,26.6-4.1c6,0,11.9,0.5,17.9,1.5c6,1,11.8,2.5,17.4,4.4c5.6,1.9,11,4.1,16.2,6.7
			c5.1,2.6,9.8,5.5,14.1,8.7L-79.7-1020.4z M-49.8-1081.9H77.7v44.6H0.1v21.7h70.5v44.6H0.1v22h79.6v44.5H-49.8V-1081.9z
			 M98.6-1081.9h41.7l59.5,91v-91H245v177.4h-41.8L143.9-995v90.4H98.6V-1081.9z M333.8-1081.9c12.4,0,23.7,2.1,33.8,6.3
			c10.1,4.2,18.7,10.1,25.8,17.8c7.1,7.7,12.7,17,16.5,27.9c3.9,10.9,5.8,23.1,5.8,36.5s-2,25.6-5.9,36.5
			c-3.9,10.9-9.6,20.3-16.9,28c-7.3,7.7-16.2,13.7-26.5,17.9c-10.3,4.2-21.9,6.3-34.6,6.3h-65.4v-177.4H333.8z M335.1-950
			c4.5,0,8.6-1,12.3-3c3.7-2,6.8-4.9,9.3-8.6c2.5-3.7,4.5-8.2,5.9-13.5c1.4-5.3,2.1-11.2,2.1-17.7c0-6.6-0.8-12.6-2.3-17.9
			c-1.5-5.4-3.7-9.9-6.5-13.7c-2.8-3.8-6.2-6.7-10.1-8.7c-3.9-2.1-8.3-3.1-13.2-3.1h-16.4v86.3H335.1z M532.2-1081.9h51.1
			l61.4,177.4h-53.2l-7.4-25.1h-56.6l-7.8,25.1h-51.1L532.2-1081.9z M556.3-1023.5l-15.9,51.9h31.3L556.3-1023.5z M697.8-978.1
			c0,4.4,0.6,8.4,1.8,11.9c1.2,3.5,2.8,6.6,4.8,9.1c2,2.5,4.4,4.5,7.1,5.8c2.7,1.4,5.4,2,8.3,2c2.9,0,5.5-0.7,8-2
			c2.5-1.3,4.6-3.3,6.5-5.8c1.8-2.5,3.3-5.5,4.4-9.1c1.1-3.6,1.6-7.6,1.6-12v-103.7h49.9v103.7c0,11.7-1.7,22.4-5,31.9
			c-3.3,9.5-8.1,17.7-14.2,24.5c-6.1,6.8-13.6,12-22.2,15.7c-8.7,3.7-18.4,5.5-29.1,5.5c-10.8,0-20.5-1.8-29.3-5.5
			c-8.8-3.7-16.3-8.9-22.6-15.7c-6.3-6.8-11.1-15-14.5-24.5c-3.4-9.5-5.1-20.2-5.1-31.9v-103.7h49.9V-978.1z M796.9-1081.9h135.7
			v46.4h-43v131h-50v-131h-42.7V-1081.9z M1017.6-1085.7c12,0,23,2.3,33.2,6.9c10.1,4.6,18.9,11,26.2,19.1
			c7.4,8.2,13.1,17.9,17.2,29.1c4.1,11.3,6.2,23.6,6.2,36.9c0,13.4-2.1,25.8-6.2,37.2c-4.1,11.4-9.9,21.2-17.2,29.5
			c-7.4,8.3-16.1,14.8-26.2,19.4c-10.1,4.7-21.2,7-33.2,7c-12,0-23-2.3-33.2-7c-10.1-4.6-18.9-11.1-26.2-19.4
			c-7.4-8.3-13.1-18.1-17.2-29.5c-4.1-11.4-6.2-23.8-6.2-37.2s2.1-25.8,6.2-37c4.1-11.2,9.9-20.9,17.2-29.1
			c7.4-8.2,16.1-14.6,26.2-19.1C994.5-1083.4,1005.6-1085.7,1017.6-1085.7z M1018.2-1036.8c-4.4,0-8.5,1.1-12.4,3.2
			c-3.9,2.2-7.3,5.2-10.3,9c-2.9,3.8-5.3,8.4-7,13.7s-2.6,11.1-2.6,17.5s0.9,12.2,2.6,17.5c1.8,5.4,4.1,10,7.1,13.9
			c2.9,3.9,6.4,7,10.3,9.2c3.9,2.2,8,3.4,12.3,3.4s8.3-1.1,12.1-3.4c3.8-2.2,7-5.3,9.8-9.2c2.8-3.9,5-8.6,6.6-13.9
			c1.6-5.4,2.4-11.2,2.4-17.5s-0.8-12.2-2.4-17.5c-1.6-5.3-3.8-9.9-6.6-13.7c-2.8-3.8-6-6.8-9.8-9
			C1026.6-1035.7,1022.5-1036.8,1018.2-1036.8z"/>
	</defs>
	<clipPath id="SVGID_00000083802908375460851540000003628607303489991305_">
		<use xlink:href="#SVGID_1_"  style="overflow:visible;"/>
	</clipPath>
	<g style="clip-path:url(#SVGID_00000083802908375460851540000003628607303489991305_);">
		<defs>
			<rect id="SVGID_00000107579016787097679210000018190024895319412415_" x="-778.7" y="-1535.4" width="1920" height="1080"/>
		</defs>
		<clipPath id="SVGID_00000082337299313643459500000016676538053502997906_">
			<use xlink:href="#SVGID_00000107579016787097679210000018190024895319412415_"  style="overflow:visible;"/>
		</clipPath>
		<g style="clip-path:url(#SVGID_00000082337299313643459500000016676538053502997906_);">
			
				<image style="overflow:visible;" width="1920" height="1080" xlink:href="E72C894.jpg"  transform="matrix(1 0 0 1 -778.72 -1535.36)">
			</image>
		</g>
	</g>
</g>
<image style="overflow:visible;" width="1024" height="1024" xlink:href="../../../../design/logoidea.jpg"  transform="matrix(0.4092 0 0 0.4092 -1367.4 -590.48)">
</image>
<image style="overflow:visible;" width="324" height="313" xlink:href="../../../../design/logoidea2.png"  transform="matrix(2.0799 0 0 2.0799 -1585 -78)">
</image>
<image style="overflow:visible;" width="484" height="311" xlink:href="../../../../design/logoidea3.png"  transform="matrix(0.75 0 0 0.75 -1335.08 -1143.52)">
</image>
<g>
	<circle class="st1" cx="-1264.5" cy="-752.5" r="45.5"/>
	<path class="st1" d="M-962-752.5c0,25.1-20.4,45.5-45.5,45.5s-45.5-20.4-45.5-45.5c0-2.8,0.2-5.6,0.7-8.2l-0.1,0.1
		c0,0-92.6-88.3-243.4-44.2c0,0,110.9-106,288.3,6.8C-982.4-798-962-777.6-962-752.5z"/>
</g>
<g>
	<path class="st2" d="M157.8,18.1c57.6,45.3,57.6,118.7,0,164c-9,7.1-18.9,13.1-29.4,17.9c33.4-44.5,25.8-102.7-22.8-140.9
		c-14.4-11.3-14.4-29.7,0-41S143.4,6.8,157.8,18.1z"/>
	<path class="st2" d="M44.2,181.9c-57.6-45.3-57.6-118.7,0-164c9-7.1,18.9-13.1,29.4-17.9C40.2,44.5,47.8,102.7,96.4,140.9
		c14.4,11.3,14.4,29.7,0,41S58.6,193.2,44.2,181.9z"/>
</g>
<g>
	<path class="st3" d="M321,120.5v76.1h-42V3.4h122v39h-81l1,40h67v38H321z"/>
	<path class="st3" d="M429,3.4h42v117.7c0,24.3,13.4,37.6,37.2,37.6c24.1,0,37.8-13.8,37.8-37.6V3.4h42V124
		c0,45.9-31.3,75.7-79.8,75.7c-48.2,0-79.2-29.5-79.2-75.7V3.4z"/>
	<path class="st3" d="M669,157.6h76v39H627V3.4h42V157.6z"/>
	<path class="st3" d="M814,157.6h76v39H772V3.4h42V157.6z"/>
	<path class="st3" d="M970.2,0c41.4,0,67.4,22.9,67.4,59.5h-41.9c0-13.6-10.2-21.9-26-21.9c-17.2,0-28.1,7.8-28.1,20.6
		c0,11.7,6,17.5,19.5,20.3l28.9,6c34.4,7,50.8,23.5,50.8,54c0,37.3-29.2,61.5-73.4,61.5c-43,0-70.8-23.2-70.8-59.5h41.9
		c0,14.1,10.4,21.9,29.2,21.9c19,0,31-7.6,31-19.8c0-10.7-4.9-16.2-17.7-18.8l-29.4-6c-34.4-7-52.1-26.6-52.1-58.1
		C899.4,24.8,928.8,0,970.2,0z"/>
	<path class="st3" d="M1069,196.6V3.4h122v39h-80v38h71v37h-71v40h80v39H1069z"/>
	<path class="st3" d="M1226.1,196.6V3.4h41.1l81.9,123V3.4h42v193.2H1350l-81.9-122.7v122.7H1226.1z"/>
	<path class="st3" d="M1431.1,196.6V3.4h73c56.6,0,95.9,39.7,95.9,97.1c0,56.4-38.3,96.1-93.3,96.1H1431.1z M1473.1,42.4v115.1h29.3
		c33.4,0,53-21.2,53-57c0-36.6-20.6-58.1-55.7-58.1H1473.1z"/>
</g>
</svg>
